<svg width="102" height="102" viewBox="0 0 102 102" fill="none" xmlns="http://www.w3.org/2000/svg">
<path d="M69.1333 26.822H32.8667C31.2641 26.8235 29.7275 27.4608 28.5943 28.5941C27.461 29.7273 26.8237 31.2638 26.8222 32.8665V69.1331C26.8237 70.7357 27.461 72.2723 28.5943 73.4055C29.7275 74.5388 31.2641 75.1761 32.8667 75.1776H51V58.5553H44.9556V50.9998H51V44.9553C51 42.5507 51.9552 40.2446 53.6556 38.5442C55.3559 36.8439 57.6621 35.8887 60.0667 35.8887H66.1111V43.4442H63.0889C61.421 43.4442 60.0667 43.2875 60.0667 44.9553V50.9998H67.6222L64.6 58.5553H60.0667V75.1776H69.1333C70.736 75.1761 72.2725 74.5388 73.4058 73.4055C74.539 72.2723 75.1763 70.7357 75.1778 69.1331V32.8665C75.1763 31.2638 74.539 29.7273 73.4058 28.5941C72.2725 27.4608 70.736 26.8235 69.1333 26.822Z" fill="white"/>
</svg>
