<svg viewBox="0 0 29 29" xmlns="http://www.w3.org/2000/svg"><path d="m26.38 0h-23.76a2.63 2.63 0 0 0 -2.62 2.62v23.76a2.63 2.63 0 0 0 2.62 2.62h23.76a2.63 2.63 0 0 0 2.62-2.62v-23.76a2.63 2.63 0 0 0 -2.62-2.62zm-17.38 25a.75.75 0 0 1 -.76.76h-3.24a.93.93 0 0 1 -.29-.05.85.85 0 0 1 -.25-.17.6.6 0 0 1 -.16-.25.72.72 0 0 1 -.1-.29v-13.58a.77.77 0 0 1 .22-.54.78.78 0 0 1 .58-.23h3.21a.72.72 0 0 1 .29.06.81.81 0 0 1 .42.42.72.72 0 0 1 .06.29zm-2.41-15.63a3.08 3.08 0 0 1 -1.72-.52 3.06 3.06 0 0 1 -1.31-3.17 3.09 3.09 0 0 1 .84-1.58 3 3 0 0 1 1.6-.84 3.13 3.13 0 0 1 1.79.17 3.1 3.1 0 0 1 1 5 3.13 3.13 0 0 1 -2.2.94zm19.41 15.73a.71.71 0 0 1 -.21.5.7.7 0 0 1 -.5.2h-3.52a.68.68 0 0 1 -.7-.7v-6.39c0-.95.27-4.17-2.5-4.17-2.15 0-2.58 2.2-2.67 3.19v7.37a.7.7 0 0 1 -.2.5.72.72 0 0 1 -.5.2h-3.37a.68.68 0 0 1 -.7-.7v-13.74a.7.7 0 0 1 .2-.5.71.71 0 0 1 .5-.21h3.37a.73.73 0 0 1 .5.21.7.7 0 0 1 .2.5v1.19c.8-1.2 2-2.12 4.5-2.12 5.6 0 5.6 5.21 5.6 8.08z" fill="#f01518"/></svg>