<svg viewBox="0 0 28.55 28.55" xmlns="http://www.w3.org/2000/svg"><path d="m19.63 0h-10.71a8.91 8.91 0 0 0 -8.92 8.92v10.71a8.87 8.87 0 0 0 .68 3.37 8.89 8.89 0 0 0 8.24 5.51h10.71a8.87 8.87 0 0 0 3.37-.64 8.85 8.85 0 0 0 4.87-4.87 8.87 8.87 0 0 0 .68-3.41v-10.67a8.87 8.87 0 0 0 -.68-3.41 8.85 8.85 0 0 0 -4.87-4.83 8.87 8.87 0 0 0 -3.37-.68zm6.24 19.63a6.25 6.25 0 0 1 -6.24 6.24h-10.71a6.25 6.25 0 0 1 -6.24-6.24v-10.71a6.25 6.25 0 0 1 6.24-6.24h10.71a6.25 6.25 0 0 1 6.24 6.24zm-11.6-12.49a7.14 7.14 0 1 0 5.05 2.09 7.15 7.15 0 0 0 -5.05-2.09zm0 11.59a4.48 4.48 0 0 1 -4.12-2.73 4.54 4.54 0 0 1 -.25-2.6 4.46 4.46 0 0 1 3.5-3.5 4.54 4.54 0 0 1 2.58.25 4.48 4.48 0 0 1 2.75 4.12 4.44 4.44 0 0 1 -4.46 4.46zm8.6-12.34a.95.95 0 1 1 -1.14-.71.94.94 0 0 1 1.14.71z" fill="#f01518" fill-rule="evenodd"/></svg>