<svg width="102" height="102" viewBox="0 0 102 102" fill="none" xmlns="http://www.w3.org/2000/svg">
<path d="M60.0667 26.822H41.9334C37.9257 26.822 34.0821 28.4141 31.2482 31.248C28.4143 34.0818 26.8223 37.9254 26.8223 41.9331V60.0665C26.8223 62.0509 27.2131 64.0159 27.9725 65.8492C28.7319 67.6826 29.845 69.3484 31.2482 70.7516C34.0821 73.5855 37.9257 75.1776 41.9334 75.1776H60.0667C62.0511 75.1776 64.0161 74.7867 65.8495 74.0273C67.6828 73.2679 69.3487 72.1548 70.7519 70.7516C72.1551 69.3484 73.2682 67.6826 74.0276 65.8492C74.787 64.0159 75.1778 62.0509 75.1778 60.0665V41.9331C75.1778 39.9487 74.787 37.9837 74.0276 36.1504C73.2682 34.317 72.1551 32.6512 70.7519 31.248C69.3487 29.8448 67.6828 28.7317 65.8495 27.9723C64.0161 27.2129 62.0511 26.822 60.0667 26.822ZM70.6445 60.0665C70.6415 62.8709 69.5261 65.5597 67.543 67.5428C65.5599 69.5258 62.8712 70.6412 60.0667 70.6442H41.9334C39.1289 70.6412 36.4401 69.5258 34.4571 67.5428C32.474 65.5597 31.3586 62.8709 31.3556 60.0665V41.9331C31.3586 39.1286 32.474 36.4399 34.4571 34.4568C36.4401 32.4738 39.1289 31.3584 41.9334 31.3554H60.0667C62.8712 31.3584 65.5599 32.4738 67.543 34.4568C69.5261 36.4399 70.6415 39.1286 70.6445 41.9331V60.0665Z" fill="white"/>
<path d="M51 38.9111C48.6091 38.9111 46.2718 39.6201 44.2838 40.9485C42.2958 42.2768 40.7463 44.1648 39.8313 46.3738C38.9164 48.5828 38.677 51.0134 39.1434 53.3584C39.6099 55.7035 40.7612 57.8575 42.4519 59.5481C44.1426 61.2388 46.2966 62.3902 48.6416 62.8566C50.9866 63.3231 53.4173 63.0837 55.6262 62.1687C57.8352 61.2537 59.7232 59.7042 61.0516 57.7162C62.3799 55.7282 63.0889 53.391 63.0889 51C63.0889 47.7938 61.8153 44.719 59.5482 42.4519C57.2811 40.1848 54.2062 38.9111 51 38.9111ZM51 58.5556C49.5057 58.5556 48.0449 58.1124 46.8024 57.2822C45.5599 56.452 44.5915 55.272 44.0196 53.8914C43.4477 52.5108 43.2981 50.9916 43.5896 49.526C43.8812 48.0604 44.6008 46.7141 45.6574 45.6574C46.7141 44.6008 48.0604 43.8812 49.526 43.5896C50.9916 43.2981 52.5108 43.4477 53.8914 44.0196C55.272 44.5915 56.452 45.5599 57.2822 46.8024C58.1125 48.0449 58.5556 49.5057 58.5556 51C58.5528 53.003 57.7559 54.9232 56.3396 56.3396C54.9232 57.7559 53.003 58.5528 51 58.5556Z" fill="white"/>
<path d="M64.3643 39.5752C65.2304 39.3708 65.7668 38.503 65.5624 37.637C65.358 36.7709 64.4902 36.2346 63.6241 36.439C62.7581 36.6434 62.2217 37.5112 62.4261 38.3772C62.6305 39.2433 63.4983 39.7796 64.3643 39.5752Z" fill="white"/>
</svg>
