<svg width="105" height="102" viewBox="0 0 105 102" fill="none" xmlns="http://www.w3.org/2000/svg">
<path d="M72.8865 26.822H32.1134C30.9194 26.8223 29.7744 27.2832 28.9301 28.1033C28.0858 28.9235 27.6113 30.0358 27.6111 31.1957V70.8029C27.6111 71.963 28.0854 73.0755 28.9297 73.8959C29.7741 74.7163 30.9193 75.1773 32.1134 75.1776H72.8855C74.0799 75.1776 75.2253 74.7167 76.0699 73.8963C76.9144 73.0758 77.3889 71.9631 77.3889 70.8029V31.1957C77.3886 30.0358 76.9142 28.9235 76.0699 28.1033C75.2256 27.2832 74.0805 26.8223 72.8865 26.822ZM43.014 68.575C43.0143 68.9119 42.8769 69.2351 42.6322 69.4738C42.3874 69.7125 42.0551 69.8471 41.7083 69.8481H36.1258C35.9537 69.8481 35.7833 69.8151 35.6243 69.7512C35.4653 69.6872 35.3208 69.5934 35.1991 69.4752C35.0774 69.357 34.9809 69.2166 34.915 69.0622C34.8492 68.9077 34.8153 68.7421 34.8153 68.575V45.8611C34.8153 45.5234 34.9533 45.1996 35.1991 44.9608C35.4449 44.7221 35.7782 44.588 36.1258 44.588H41.7083C41.8804 44.588 42.0507 44.6209 42.2097 44.6849C42.3686 44.7489 42.5131 44.8427 42.6347 44.9609C42.7563 45.0791 42.8527 45.2195 42.9185 45.3739C42.9842 45.5284 43.018 45.6939 43.0179 45.8611L43.014 68.575ZM38.9151 42.4469C37.8669 42.4471 36.8422 42.1453 35.9706 41.5797C35.0989 41.0142 34.4195 40.2102 34.0182 39.2695C33.617 38.3288 33.5119 37.2937 33.7163 36.295C33.9206 35.2963 34.4253 34.3789 35.1664 33.6588C35.9075 32.9387 36.8518 32.4483 37.8799 32.2496C38.9079 32.0508 39.9736 32.1527 40.942 32.5424C41.9104 32.932 42.7381 33.5918 43.3205 34.4385C43.9029 35.2851 44.2137 36.2805 44.2137 37.2987C44.2135 38.6639 43.6552 39.973 42.6616 40.9384C41.668 41.9038 40.3204 42.4464 38.9151 42.4469ZM72.1651 68.6779C72.1649 68.9883 72.0377 69.286 71.8117 69.5054C71.5856 69.7248 71.2791 69.8481 70.9596 69.8481H64.9746C64.6551 69.8481 64.3487 69.7248 64.1228 69.5053C63.8969 69.2859 63.77 68.9882 63.77 68.6779V58.0236C63.77 56.4341 64.2493 51.0583 59.4922 51.0583C55.7978 51.0583 55.055 54.7417 54.9043 56.3888V68.6779C54.9043 68.9882 54.7774 69.2859 54.5515 69.5053C54.3256 69.7248 54.0192 69.8481 53.6997 69.8481H47.9121C47.5926 69.8481 47.2862 69.7248 47.0603 69.5053C46.8344 69.2859 46.7075 68.9882 46.7075 68.6779V45.7581C46.7075 45.4478 46.8344 45.1501 47.0603 44.9307C47.2862 44.7112 47.5926 44.588 47.9121 44.588H53.7016C54.0211 44.588 54.3275 44.7112 54.5534 44.9307C54.7793 45.1501 54.9062 45.4478 54.9062 45.7581V47.7415C56.2741 45.7477 58.309 44.2083 62.6354 44.2083C72.2196 44.2083 72.1632 52.9066 72.1632 57.6865V68.6798L72.1651 68.6779Z" fill="white"/>
</svg>
