<?xml version="1.0" encoding="utf-8"?>
<!-- Generator: Adobe Illustrator 25.0.0, SVG Export Plug-In . SVG Version: 6.00 Build 0)  -->
<svg version="1.1" id="Calque_1" xmlns="http://www.w3.org/2000/svg" xmlns:xlink="http://www.w3.org/1999/xlink" x="0px" y="0px"
	 viewBox="0 0 106.9 106.1" style="enable-background:new 0 0 106.9 106.1;" xml:space="preserve">
<style type="text/css">
	.st0{clip-path:url(#SVGID_2_);}
	.st1{fill:#F01518;}
</style>
<g>
	<g>
		<g>
			<defs>
				<rect id="SVGID_1_" y="-0.9" width="106.9" height="106.9"/>
			</defs>
			<clipPath id="SVGID_2_">
				<use xlink:href="#SVGID_1_"  style="overflow:visible;"/>
			</clipPath>
			<g class="st0">
				<path class="st1" d="M25.6,61c1,0,1.7-0.7,1.7-1.7c0-1-0.7-1.7-1.7-1.7c-1,0-1.7,0.7-1.7,1.7S24.7,61,25.6,61z"/>
				<path class="st1" d="M18.2,59.5c1,0,1.7-0.7,1.7-1.7c0-1-0.7-1.7-1.7-1.7c-1,0-1.7,0.7-1.7,1.7C16.5,58.7,17.3,59.5,18.2,59.5z"
					/>
				<path class="st1" d="M25.2,61l0.7-3.3l-7.4-1.5l-0.7,3.3L25.2,61z"/>
				<path class="st1" d="M27.8,55.7c1,0,1.7-0.7,1.7-1.7c0-1-0.7-1.7-1.7-1.7S26.1,53,26.1,54C26.2,55,27,55.7,27.8,55.7z"/>
				<path class="st1" d="M18.4,53.8c1,0,1.7-0.7,1.7-1.7c0-1-0.7-1.7-1.7-1.7c-1,0-1.7,0.7-1.7,1.7S17.5,53.8,18.4,53.8z"/>
				<path class="st1" d="M27.4,55.6l0.7-3.3l-9.3-2l-0.7,3.3L27.4,55.6z"/>
				<path class="st1" d="M22.8,66.1c1,0,1.7-0.7,1.7-1.7s-0.7-1.7-1.7-1.7s-1.7,0.7-1.7,1.7S21.9,66.1,22.8,66.1z"/>
				<path class="st1" d="M19.3,65.4c1,0,1.7-0.7,1.7-1.7S20.3,62,19.3,62c-1,0-1.7,0.7-1.7,1.7S18.4,65.4,19.3,65.4z"/>
				<path class="st1" d="M22.5,66l0.7-3.3l-3.3-0.7l-0.7,3.3L22.5,66z"/>
				<path class="st1" d="M24.8,49.5c1,0,1.7-0.7,1.7-1.7s-0.7-1.7-1.7-1.7c-1,0-1.7,0.7-1.7,1.7C23.1,48.7,23.9,49.5,24.8,49.5z"/>
				<path class="st1" d="M19,48.3c1,0,1.7-0.7,1.7-1.7c0-1-0.7-1.7-1.7-1.7c-1-0.1-1.7,0.7-1.7,1.6C17.3,47.5,18,48.3,19,48.3z"/>
				<path class="st1" d="M24.4,49.4l0.7-3.3l-5.8-1.2l-0.7,3.3L24.4,49.4z"/>
				<path class="st1" d="M47.5,62.9c2.2-2.6,3.7-1.2,3.7-1.2s2.8,2,3.4,0.7c0.5-1-0.9-2.8-2.5-5c0,0-1.5-2.3-4.6-0.7
					c-2.4,1.2-3.8-1.4-5-2.8c-0.2-0.3-0.6-0.6-1-0.8s-0.8-0.2-1.2-0.2c-2.2,0-5.4-0.2-5.7-3.6c-0.2-2.7,0.8-3.6,3.9-3.9
					c1.5-0.2,2.4-1.1,3.6-2.1c0.4-0.4,4.1-5.4,7.9-6.2l27.3-0.2c5.4,0,8.5-3.7,8.5-7.9v-0.2c0-5.4-3.3-7.9-8.6-7.9H47.4
					c-5.9,0-11.6,1.9-16.3,5.4s-8.1,8.3-9.9,13.9c-0.2,0.7-0.4,1.4-0.7,2.1c-0.1,0.1-0.1,0.2,0,0.3c0,0.1,0.1,0.2,0.1,0.3
					c0.1,0.1,0.2,0.2,0.2,0.2c0.1,0.1,0.2,0.1,0.3,0.2l5,1.1c0.1,0,3.2,1.7,2.4,4.2l-0.7,1.5c0,0.1-0.1,0.1-0.1,0.2
					c0,0.1,0,0.1,0.1,0.2c0,0.1,0.1,0.1,0.1,0.1c0.1,0.1,0.1,0.1,0.1,0.1l1.5,0.4c0.1,0,2.4,1.5,2,3.6c-0.2,1.3-1.1,2.3-1.8,2.7
					c-0.2,0.2-0.2,0.3-0.3,0.5c-0.1,0.2-0.1,0.4,0,0.7c0.2,0.5,0.2,1.4-0.2,2.7c-0.2,0.6-0.5,1.1-1,1.5c-0.5,0.4-1.1,0.7-1.7,0.8
					c-0.1,0-0.1,0.1-0.2,0.1c-0.1,0.1-0.1,0.1-0.1,0.1c-0.1,0.1-0.1,0.1-0.1,0.2c0,0.1,0,0.1,0,0.2c0.2,1,0.2,2.8-3.3,4.5
					c-0.7,0.3,0.7,2.3,0.1,4.5l-0.7,3.4c-0.1,0.4-0.1,0.8,0.2,1.2c0.2,0.4,0.5,0.7,0.9,0.8c0.2,0.1,0.4,0.1,0.7,0.1
					c0.2,0,0.4-0.1,0.7-0.2c0.2-0.2,0.4-0.2,0.5-0.4c0.1-0.2,0.2-0.4,0.3-0.6l0.5-2.2l0.1-0.5c0.2-0.6,0.7-1.5,1.5-1.4
					c1.1,0.1,0.9,1.6,0.8,2v0.1L27,80.9c-0.2,1,0.2,2,1.1,2.2c0.9,0.2,1.8-0.4,2-1.5l1.5-5.9l0.5-1.9c0.2-0.7,0.7-1.4,1.4-1.2
					c0.9,0.2,0.9,1.2,0.8,2.1L34,75.8l-1.5,7c-0.3,1.2,0.2,2.4,1.1,2.6c0.9,0.2,1.8-0.7,2.1-1.9l2-8.1c0.3-0.9,0.8-1.8,1.5-1.7
					c0.9,0.2,0.8,1.6,0.6,2.8l-0.3,1.3L37.8,85c-0.4,1.4,0.1,2.8,1,3c0.9,0.2,1.9-0.8,2.2-2.2l4-16.4C45.3,67.6,45.6,65.2,47.5,62.9
					z"/>
				<path class="st1" d="M36.3,47.7c-0.4,1.2,0.8,2.4,1.2,2.8c0.1,0.1,0.2,0.1,0.3,0.2c0.7,0.2,3.2,1.1,4.5,0.7
					c0.4-0.1,0.8-0.2,1.2-0.1s0.8,0.2,1.1,0.5c0.1,0.1,0.2,0.2,0.2,0.3l0.9,1.5c0.1,0.2,0.2,0.4,0.5,0.4c1,0.4,2,0.2,2.8,0.1
					c0.2-0.1,0.2-0.1,0.4-0.2c0.1-0.1,0.2-0.2,0.2-0.3c0.1-0.1,0.1-0.2,0.1-0.4c0-0.2-0.1-0.2-0.1-0.4c-0.9-2-2-3.9-3-5.8
					c-0.1-0.2-0.2-0.2-0.3-0.3c-0.2-0.1-0.3-0.2-0.5-0.2c-3.9-0.2-7.6,0.4-8.9,0.7c-0.2,0.1-0.3,0.1-0.5,0.2
					C36.5,47.4,36.4,47.5,36.3,47.7z"/>
				<path class="st1" d="M75.2,70.6H58h-5.1c-2.5,0-5.5-0.2-6.7,4.1l-0.8,4.6c-0.2,0.8-0.2,1.7,0,2.6c0.2,0.8,0.6,1.6,1.1,2.3
					c0.5,0.7,1.2,1.2,2,1.5c0.8,0.4,1.6,0.6,2.4,0.6h30.4c7.6-0.4,7.2-3.7,7.2-9.3l-0.2-6.5C83.2,70.7,75.2,70.6,75.2,70.6z"/>
				<path class="st1" d="M81.2,77.5c3.9,0,7.2-3.2,7.2-7.2c0-4-3.2-7.2-7.2-7.2c-3.9,0-7.2,3.2-7.2,7.2
					C74.1,74.4,77.3,77.5,81.2,77.5z"/>
			</g>
		</g>
	</g>
</g>
</svg>
