<?xml version="1.0" encoding="utf-8"?>
<!-- Generator: Adobe Illustrator 25.0.0, SVG Export Plug-In . SVG Version: 6.00 Build 0)  -->
<svg version="1.1" id="Calque_1" xmlns="http://www.w3.org/2000/svg" xmlns:xlink="http://www.w3.org/1999/xlink" x="0px" y="0px"
	 viewBox="0 0 82.5 79.4" style="enable-background:new 0 0 82.5 79.4;" xml:space="preserve">
<style type="text/css">
	.st0{fill:#FFFFFF;}
</style>
<path class="st0" d="M9.9,48.2c1,0,1.9-0.8,1.9-1.9c0-1-0.8-1.9-1.9-1.9c-1,0-1.9,0.8-1.9,1.9C8,47.3,8.9,48.2,9.9,48.2z"/>
<path class="st0" d="M1.7,46.5c1,0,1.9-0.8,1.9-1.9s-0.8-1.9-1.9-1.9c-1,0-1.9,0.8-1.9,1.9S0.7,46.5,1.7,46.5z"/>
<path class="st0" d="M9.5,48.1l0.8-3.7l-8.2-1.7l-0.8,3.7L9.5,48.1z"/>
<path class="st0" d="M12.4,42.3c1,0,1.9-0.8,1.9-1.9s-0.8-1.9-1.9-1.9c-1,0-1.9,0.8-1.9,1.9S11.4,42.3,12.4,42.3z"/>
<path class="st0" d="M1.9,40.1c1,0,1.9-0.8,1.9-1.9c0-1-0.8-1.9-1.9-1.9c-1,0-1.9,0.8-1.9,1.9C0.1,39.3,0.9,40.1,1.9,40.1z"/>
<path class="st0" d="M11.9,42.2l0.8-3.7L2.4,36.4l-0.8,3.7L11.9,42.2z"/>
<path class="st0" d="M6.8,53.8c1,0,1.9-0.8,1.9-1.9s-0.8-1.9-1.9-1.9c-1,0-1.9,0.8-1.9,1.9S5.8,53.8,6.8,53.8z"/>
<path class="st0" d="M2.9,53c1,0,1.9-0.8,1.9-1.9c0-1-0.8-1.9-1.9-1.9c-1,0-1.9,0.8-1.9,1.9C1,52.2,1.9,53,2.9,53z"/>
<path class="st0" d="M6.4,53.8l0.8-3.7l-3.7-0.8L2.8,53L6.4,53.8z"/>
<path class="st0" d="M9,35.4c1,0,1.9-0.8,1.9-1.9c0-1-0.8-1.9-1.9-1.9c-1,0-1.9,0.8-1.9,1.9C7.2,34.5,8,35.4,9,35.4z"/>
<path class="st0" d="M2.6,34c1,0,1.9-0.8,1.9-1.9c0-1-0.8-1.9-1.9-1.9c-1,0-1.9,0.8-1.9,1.9C0.7,33.2,1.5,34,2.6,34z"/>
<path class="st0" d="M8.7,35.3l0.8-3.7L3,30.3L2.2,34L8.7,35.3z"/>
<path class="st0" d="M34.3,50.3c2.4-2.9,4.1-1.4,4.1-1.3c0,0,3.1,2.3,3.9,0.7c0.5-1.1-1-3.1-2.8-5.6c0,0-1.7-2.6-5-0.8
	c-2.6,1.4-4.3-1.5-5.6-3.2c-0.3-0.4-0.6-0.7-1-0.9c-0.4-0.2-0.9-0.3-1.3-0.3c-2.5,0-6-0.3-6.3-4c-0.2-3,0.9-4,4.4-4.4
	c1.7-0.2,2.7-1.2,4-2.3c0.5-0.4,4.5-6,8.7-6.8l30.3-0.2c6,0,9.4-4.1,9.4-8.7v-0.2c0-6-3.6-8.8-9.6-8.8H34.1c-6.5,0-12.8,2.1-18,5.9
	c-5.2,3.8-9.1,9.3-11,15.5c-0.2,0.8-0.5,1.6-0.7,2.4c0,0.1,0,0.2,0,0.4c0,0.1,0.1,0.2,0.1,0.3c0.1,0.1,0.1,0.2,0.3,0.3
	c0.1,0.1,0.2,0.1,0.3,0.1l5.6,1.2c0.1,0,3.5,1.8,2.7,4.7l-0.7,1.7c0,0,0,0.1,0,0.2c0,0.1,0,0.1,0,0.2c0,0,0.1,0.1,0.1,0.1
	s0.1,0.1,0.1,0.1l1.6,0.5c0,0,2.7,1.6,2.2,4c-0.3,1.5-1.3,2.5-2,3.1c-0.2,0.2-0.3,0.4-0.4,0.6c-0.1,0.2-0.1,0.5,0,0.7
	c0.2,0.6,0.3,1.5-0.1,2.9c-0.2,0.7-0.6,1.3-1.1,1.7c-0.5,0.5-1.2,0.8-1.8,0.9c-0.1,0-0.1,0-0.2,0.1c-0.1,0-0.1,0.1-0.1,0.1
	c0,0.1-0.1,0.1-0.1,0.2c0,0.1,0,0.1,0,0.2c0.3,1,0.2,3.1-3.6,5c-0.7,0.3,0.7,2.5,0.1,5l-0.8,3.8c-0.1,0.4-0.1,0.9,0.2,1.3
	c0.2,0.4,0.6,0.7,1,0.9c0.2,0.1,0.5,0.1,0.7,0.1c0.2,0,0.5-0.1,0.7-0.2c0.2-0.1,0.4-0.3,0.6-0.5c0.2-0.2,0.3-0.4,0.3-0.7l0.6-2.5
	l0.1-0.5c0.2-0.6,0.7-1.6,1.7-1.5c1.3,0.1,1,1.8,0.9,2.2l0,0.1L11.8,70c-0.3,1.1,0.3,2.2,1.2,2.5c1,0.2,2-0.5,2.2-1.6l1.6-6.7
	l0.5-2.1c0.3-0.8,0.8-1.5,1.6-1.4c1,0.2,1,1.4,0.9,2.3l-0.3,1.2L17.7,72c-0.3,1.3,0.2,2.6,1.1,2.9c1,0.2,2-0.7,2.3-2l2.2-9.1
	c0.3-1,0.9-2,1.8-1.8c1,0.2,0.9,1.8,0.7,3.1l-0.4,1.5l-2,8.1c-0.4,1.6,0.1,3.1,1,3.3c1,0.2,2.1-0.9,2.4-2.4l4.4-18.2
	C31.8,55.5,32.2,52.8,34.3,50.3z"/>
<path class="st0" d="M21.9,33.4c-0.5,1.4,0.9,2.7,1.4,3.1c0.1,0.1,0.2,0.1,0.3,0.2c0.7,0.3,3.6,1.2,5,0.7c0.4-0.1,0.9-0.2,1.3-0.1
	c0.4,0.1,0.9,0.3,1.2,0.5c0.1,0.1,0.2,0.2,0.3,0.3l1,1.8c0.1,0.2,0.3,0.4,0.5,0.5c1.1,0.4,2.3,0.3,3.1,0c0.2,0,0.3-0.1,0.4-0.2
	c0.1-0.1,0.2-0.2,0.3-0.4c0.1-0.1,0.1-0.3,0.1-0.5c0-0.2,0-0.3-0.1-0.5c-1-2.2-2.1-4.4-3.4-6.5c-0.1-0.2-0.2-0.3-0.4-0.4
	C32.9,32,32.7,32,32.6,32c-4.3-0.3-8.5,0.4-9.9,0.7c-0.2,0-0.4,0.1-0.5,0.2C22,33,21.9,33.2,21.9,33.4L21.9,33.4z"/>
<path class="st0" d="M65,58.8l-19.1,0h-5.7c-2.8,0-6.2-0.2-7.4,4.6l-0.9,5.1c-0.2,0.9-0.2,1.9,0,2.8s0.6,1.8,1.2,2.5
	c0.6,0.7,1.4,1.3,2.2,1.8c0.9,0.4,1.8,0.6,2.8,0.6h33.8c8.5-0.5,8-4.2,7.9-10.3l-0.2-7.3C73.9,58.9,65,58.8,65,58.8z"/>
<path class="st0" d="M71.7,66.5c4.4,0,7.9-3.5,7.9-7.9c0-4.4-3.5-7.9-7.9-7.9c-4.4,0-7.9,3.5-7.9,7.9C63.8,63,67.4,66.5,71.7,66.5z"
	/>
</svg>
